<?xml version="1.0" encoding="UTF-8" standalone="yes"?><svg xmlns="http://www.w3.org/2000/svg" xmlns:xlink="http://www.w3.org/1999/xlink" height="217px" style="width:482px;height:217px;" version="1.1" viewBox="0 0 482 217" width="482px"><defs><filter height="300%" id="f1" width="300%" x="-1" y="-1"><feGaussianBlur result="blurOut" stdDeviation="2.0"/><feColorMatrix in="blurOut" result="blurOut2" type="matrix" values="0 0 0 0 0 0 0 0 0 0 0 0 0 0 0 0 0 0 .4 0"/><feOffset dx="4.0" dy="4.0" in="blurOut2" result="blurOut3"/><feBlend in="SourceGraphic" in2="blurOut3" mode="normal"/></filter></defs><g><line style="stroke: #383838; stroke-width: 1.0; stroke-dasharray: 5.0,5.0;" x1="57" x2="57" y1="38.2969" y2="216.9609"/><line style="stroke: #383838; stroke-width: 1.0; stroke-dasharray: 5.0,5.0;" x1="251" x2="251" y1="38.2969" y2="216.9609"/><line style="stroke: #383838; stroke-width: 1.0; stroke-dasharray: 5.0,5.0;" x1="430.5" x2="430.5" y1="38.2969" y2="216.9609"/><rect fill="#F8F8F8" filter="url(#f1)" height="30.2969" style="stroke: #383838; stroke-width: 1.5;" width="95" x="8" y="3"/><text fill="#000000" font-family="sans-serif" font-size="14" lengthAdjust="spacingAndGlyphs" textLength="81" x="15" y="22.9951">Kubernetes</text><rect fill="#F8F8F8" filter="url(#f1)" height="30.2969" style="stroke: #383838; stroke-width: 1.5;" width="49" x="225" y="3"/><text fill="#000000" font-family="sans-serif" font-size="14" lengthAdjust="spacingAndGlyphs" textLength="35" x="232" y="22.9951">Kuryr</text><rect fill="#F8F8F8" filter="url(#f1)" height="30.2969" style="stroke: #383838; stroke-width: 1.5;" width="90" x="383.5" y="3"/><text fill="#000000" font-family="sans-serif" font-size="14" lengthAdjust="spacingAndGlyphs" textLength="76" x="390.5" y="22.9951">OpenStack</text><polygon fill="#383838" points="239.5,65.2969,249.5,69.2969,239.5,73.2969,243.5,69.2969" style="stroke: #383838; stroke-width: 1.0;"/><line style="stroke: #383838; stroke-width: 1.0;" x1="57.5" x2="245.5" y1="69.2969" y2="69.2969"/><text fill="#000000" font-family="sans-serif" font-size="13" lengthAdjust="spacingAndGlyphs" textLength="132" x="64.5" y="64.3638">Network Policy Event</text><line style="stroke: #383838; stroke-width: 1.0;" x1="251.5" x2="293.5" y1="98.5625" y2="98.5625"/><line style="stroke: #383838; stroke-width: 1.0;" x1="293.5" x2="293.5" y1="98.5625" y2="111.5625"/><line style="stroke: #383838; stroke-width: 1.0;" x1="252.5" x2="293.5" y1="111.5625" y2="111.5625"/><polygon fill="#383838" points="262.5,107.5625,252.5,111.5625,262.5,115.5625,258.5,111.5625" style="stroke: #383838; stroke-width: 1.0;"/><text fill="#000000" font-family="sans-serif" font-size="13" lengthAdjust="spacingAndGlyphs" textLength="107" x="258.5" y="93.4966">Handle NP Event</text><polygon fill="#383838" points="418.5,136.5625,428.5,140.5625,418.5,144.5625,422.5,140.5625" style="stroke: #383838; stroke-width: 1.0;"/><line style="stroke: #383838; stroke-width: 1.0;" x1="251.5" x2="424.5" y1="140.5625" y2="140.5625"/><text fill="#000000" font-family="sans-serif" font-size="13" lengthAdjust="spacingAndGlyphs" textLength="155" x="258.5" y="135.6294">Create SG and SG Rules</text><polygon fill="#383838" points="262.5,165.6953,252.5,169.6953,262.5,173.6953,258.5,169.6953" style="stroke: #383838; stroke-width: 1.0;"/><line style="stroke: #383838; stroke-width: 1.0;" x1="256.5" x2="429.5" y1="169.6953" y2="169.6953"/><text fill="#000000" font-family="sans-serif" font-size="13" lengthAdjust="spacingAndGlyphs" textLength="118" x="268.5" y="164.7622">Return Objects IDs</text><polygon fill="#383838" points="68.5,194.8281,58.5,198.8281,68.5,202.8281,64.5,198.8281" style="stroke: #383838; stroke-width: 1.0;"/><line style="stroke: #383838; stroke-width: 1.0;" x1="62.5" x2="250.5" y1="198.8281" y2="198.8281"/><text fill="#000000" font-family="sans-serif" font-size="13" lengthAdjust="spacingAndGlyphs" textLength="170" x="74.5" y="193.895">Create KuryrNetPolicy CRD</text></g></svg>